# xmcd
#
# Track frame offsets: 
#        150
#        18400
#        41975
#        63852
#
# Disc length: 1105 seconds
#
# Revision: 0
# Processed by: cddbd v1.5.2PL0 Copyright (c) Steve Scherf et al.
# Submitted via: ExactAudioCopy v0.95b3
#
DISCID=2e044f04
DTITLE=Johnny Logan feat. Dara Rolins - Reunited (maxi)
DYEAR=1996
DGENRE=Pop
TTITLE0=Reunited (Special Radio Edit)
TTITLE1=Reunited (Album Version)
TTITLE2=Slow Motion
TTITLE3=Heal This Heart
EXTD=
EXTT0=
EXTT1=
EXTT2=
EXTT3=
PLAYORDER=
